<svg width="284" height="76" fill="none" xmlns="http://www.w3.org/2000/svg"><path d="M15.708 24.894c.136-2.654.592-5.217 1.593-7.55.729-1.694 2.095-2.975 3.916-3.479 1.593 3.295 2.367 6.865 2.367 10.8.32 5.628-6.374 10.937-1.274 16.062 2.731-5.308 4.735-10.891 8.332-15.833-6.056-4.85-8.424-12.401-7.604-20.09.091-.686.273-1.692 1.275-1.463 4.917 5.49 9.516 11.348 8.696 18.807 1.002 0 1.184-1.19 1.821-1.785C33.601 12.676 36.333 5.857 40.567 0H0v11.074c6.556 2.608 12.93 7.184 15.708 13.82zM45.302 4.576c.046 3.432-1.366 6.773-2.367 9.29C46.53 12.034 50.538 9.61 55 11.348V0h-9.971c.182 1.556.364 2.883.273 4.576zm-2.367-3.524c-1.23 5.126-2.869 10.022-4.417 15.056 4.599-3.34 5.327-9.427 4.417-15.056z" fill="#fff"/><path d="M37.152 16.382c1.64-4.713 3.233-9.93 3.688-14.552-2.823 4.21-4.416 9.427-3.688 14.552zm-10.745-.274c.956 1.601 2.322 4.027 3.688 4.484a39.363 39.363 0 01-6.055-13.27c-.364 3.386 1.184 6.543 2.367 8.786zm-.5-7.048c1.092 4.256 4.28 7.917 5.736 11.761-.91-4.302-2.732-8.237-5.736-11.76zm17.073 6.133c3.37-.23 7.33-.504 11.018-.733l.547-.503c-3.506-1.83-8.469-1.053-11.565 1.236zm-41.933.411C2.732 20.09 7.74 24.3 12.293 25.854 9.06 21.783 4.69 19.312 1.047 15.605zM51.95 17.48c1.001-.32 2.686-.594 2.64-1.784-3.779.457-8.059.091-11.246 1.281 2.96.55 5.373 1.053 8.605.503zm-37.563 8.375c-1.82-4.165-6.51-8.1-10.745-9.747l7.058 6.269c1.365.915 2.23 2.883 3.687 3.478z" fill="#fff"/><path d="M18.804 37.935c-1.138-2.288-.592-5.308-2.595-7.276C9.88 28.28 2.003 24.07 0 17.114v12.813c6.374 2.288 14.57 1.968 18.804 8.008zm.819-7.047h.273c1.139-4.301 3.46-9.335 1.048-13.774-.82 4.44-1.64 9.198-1.32 13.774zM55 18.35c-2.276 1.51-5.782 1.739-8.104 1.51-3.37-.046-8.788-3.478-10.472 1.007 1.138-.595 2.459-.87 3.915-.732 1.366.183 1.867 1.51 1.594 2.745-1.275 1.419-2.64 3.615-4.963 3.02-1.366-.549-.774-2.105-1.275-2.745-.318-.275-1.001 0-1.32.229-3.415 4.255-6.055 9.152-7.148 14.048 3.232-2.746 6.329-5.812 9.652-8.283 3.415-1.876 9.197-1.876 12.612 0-3.78 10.342-15.844 6.727-23.084 11.807-1.183 5.994-2.823 11.897-3.642 18.075 1.366-.183 2.64-.595 3.642-1.51 1.23-5.125 3.324-10.296 8.105-13.545 2.14-1.327 3.688-3.936 6.01-4.76-.274 6.865-3.643 14.232-10.2 17.801l.274.23c6.602-1.648 13.204-3.387 20.67-3.02 1.32.182 2.823.41 3.689 1.052v-36.93H55zM17.529 29.927l.774 1.007c-.137-3.57.137-7.642.82-11.257-1.73 2.883-2.231 6.635-1.594 10.25z" fill="#fff"/><path d="M39.52 23.612l.273-.732c-.364-.732-1.64-1.144-2.094-.229-.046.961 1.001 1.098 1.82.961zm-7.831 11.303c3.915-1.876 8.013-3.432 12.338-4.301v-.504c-4.962-1.006-8.833 1.877-12.338 4.805zM13.887 60.999c-1.867-1.007-1.23-3.066-.82-4.027.683-1.144 1.912-3.158 3.688-2.746 2.14.412 1.184 3.066 1.821 3.798.774-5.217 3.096-10.754 1.093-16.107C10.654 42.969 5.327 37.112 0 31.392V68h14.66c1.321-2.013 2.687-4.301 2.869-6.773 0-2.242-2.185.458-3.642-.228zm32.189-29.333l-.273-.274c-4.462 1.967-9.698 2.105-13.887 4.759 4.918-1.099 10.836-.366 14.16-4.485zM5.51 33.405l-.32.229c4.098 1.83 8.06 3.981 12.612 4.759-3.597-2.837-8.15-3.524-12.293-4.988z" fill="#fff"/><path d="M15.435 38.896c-3.46-.183-6.056-2.425-9.152-3.477 2.231 2.516 6.056 3.752 9.152 3.477zm6.328 10.068c-2.094 6.132-.728 13.728-5.19 18.899h.774c4.78-8.97 5.327-19.769 7.877-29.699l-3.46 10.8zm15.389-5.263c-2.367 3.844-5.19 7.78-6.283 11.806 3.551-3.386 6.42-7.55 6.283-11.806zm-3.642 2.746c-2.049 2.47-4.052 5.491-3.961 8.282 1.73-2.608 3.005-5.903 3.96-8.282zm4.189 10.799l14.933.23c-4.917-2.197-9.743-1.19-14.933-.23zm-22.765-.503l-.273 1.281c.455.595 1.047.87 1.866.732v-1.007c-.137-.732-.956-.915-1.593-1.006zm38.245 2.242l-14.388-.503c3.78 2.47 10.381 2.974 14.388.503z" fill="#fff"/><path d="M31.916 58.756c-4.416.458-8.605 2.563-11.245 5.995.455.046.774-.32 1.183-.595 1.685-1.098 3.552-2.791 5.92-2.929 1.41.733 1.502 2.289 1.046 3.478-1.047 1.053-2.003 3.158-3.915 2.746-1.138-.686-1.23-1.83-1.867-2.746l-3.415 3.02.273.23H55V60.45c-6.374 4.53-16.482 1.372-23.084-1.694zm-9.926 2.242l.274.23 2.049-1.785c-.774.778-2.095.32-2.322 1.555z" fill="#fff"/><path d="M26.407 65.025l.5-.503c-.136-.732-.682-.915-1.274-1.235-.865.732.547 1.372.774 1.738zm75.833-50.961H91.968V9.648c.032-3.456.352-3.936 2.752-3.936h.32V4.656H84.928v1.056h.352c2.4 0 2.72.448 2.752 3.936v11.2c0 3.424-.416 4.064-2.656 4.096h-.448V26H95.04v-1.056h-.416c-2.24 0-2.656-.672-2.656-4.096V15.44h10.272v5.408c0 3.424-.416 4.096-2.656 4.096h-.416V26h10.112v-1.056h-.448c-2.24-.032-2.656-.672-2.656-4.096v-11.2c.032-3.488.352-3.936 2.752-3.936h.352V4.656H99.168v1.056h.32c2.4 0 2.72.48 2.752 3.936v4.416zm20.555 8.896c-.832 1.504-2.176 2.336-3.84 2.336-2.592 0-4-2.144-4-6.016 0-.384 0-.64.064-1.152h8.928c0-3.2-2.464-5.536-5.888-5.536-3.84 0-6.656 2.976-6.656 7.008 0 3.968 2.88 6.912 6.816 6.912 2.496 0 4.704-1.312 5.568-3.264l-.992-.288zm-7.744-5.792c.16-1.28.32-1.824.736-2.432.448-.64 1.312-1.088 2.176-1.088 1.536 0 2.528 1.152 2.528 3.008 0 .224 0 .288-.032.512h-5.408zm15.871-12.832h-.288c-.704.256-3.648.768-5.024.864v1.024h.16c1.632.064 1.984.544 1.952 2.752v12.832c-.064 2.816-.256 3.104-1.952 3.136h-.32V26h7.712v-1.056h-.288c-1.696-.032-1.952-.416-1.952-3.136V4.336zm7.758 8.256c-.864.224-1.76.416-3.296.64-1.12.192-1.28.224-1.536.256v1.056h.352c1.696.032 1.888.352 1.952 3.136v11.936c-.032 2.72-.256 3.104-1.952 3.168h-.352v1.024h7.744v-1.024h-.288c-1.696-.064-1.888-.384-1.952-3.168v-4.992c1.472 1.344 2.72 1.888 4.384 1.888 3.776 0 6.496-2.976 6.496-7.072 0-3.968-2.592-6.848-6.144-6.848-1.792 0-3.424.736-4.768 2.176 0-.896-.096-1.504-.288-2.176h-.352zm.672 3.552c1.088-1.44 2.24-2.144 3.552-2.144 2.368 0 3.776 2.016 3.776 5.44 0 1.984-.48 3.712-1.248 4.512-.704.768-1.696 1.216-2.656 1.216-1.216 0-2.4-.64-3.424-1.856v-7.168zm16.406-11.84c-1.088 0-2.016.928-2.016 2.016 0 1.184.896 2.112 2.016 2.112 1.152 0 2.048-.928 2.048-2.08 0-1.12-.896-2.048-2.048-2.048zm1.792 8.288h-.288c-1.088.32-4.16.864-5.344.96v1.024h.416c1.696 0 1.984.48 2.016 3.04v4.192c-.064 2.752-.256 3.104-1.952 3.136h-.48V26h7.84v-1.056h-.288c-1.632-.032-1.856-.384-1.92-3.136v-9.216zm3.595 2.016h.128c1.664.064 1.888.384 1.952 3.104v4.096c-.032 2.752-.256 3.104-1.952 3.136h-.16V26h7.264v-1.056h-.16c-1.632-.064-1.792-.352-1.792-3.136v-5.184c1.184-1.664 2.368-2.464 3.712-2.464 1.376 0 2.24.928 2.24 2.4v5.248c0 2.784-.16 3.04-1.76 3.136h-.256V26h7.328v-1.056h-.192c-1.664-.064-1.824-.288-1.888-3.136v-4.192c0-1.856-.096-2.432-.544-3.232-.64-1.088-2.016-1.792-3.552-1.792-1.984 0-4 1.024-5.056 2.56v-.288c0-.8-.128-1.408-.416-2.144h-.128c-.96.32-2.752.64-4.768.864v1.024zm24.883 9.92s-.48 0-.896-.032c-.448-.032-.8-.032-.96-.032-1.568-.032-2.336-.352-2.336-.992 0-.832.992-1.248 3.2-1.312 1.568-.064 2.368-.192 3.36-.608 1.824-.768 2.912-2.368 2.912-4.256 0-.928-.256-1.728-.768-2.528.416-.48.768-.672 1.12-.672.256 0 .416.096.736.512.288.416.544.576.896.576.544 0 .96-.448.96-1.088 0-.832-.64-1.408-1.568-1.408-.896 0-1.696.448-2.72 1.472-1.088-1.024-2.624-1.568-4.416-1.568-3.424 0-5.856 1.952-5.856 4.64 0 1.92 1.28 3.68 3.232 4.48-2.016.416-3.008 1.344-3.008 2.784 0 1.952 1.664 2.784 5.856 2.88 2.304.032 3.488.224 4.224.64.672.416 1.024 1.056 1.024 1.824 0 1.952-1.952 3.104-5.152 3.104-2.977 0-4.832-1.088-4.832-2.88 0-.608.224-1.216.736-1.824-.384-.128-.576-.16-.832-.16-1.056 0-1.824.864-1.824 2.048 0 2.336 2.56 3.808 6.656 3.808 4.576 0 7.264-1.856 7.264-4.992 0-1.504-.768-2.944-1.952-3.52-.992-.544-2.816-.896-4.416-.896h-.64zm-.576-10.88c1.696 0 2.624 1.28 2.624 3.552 0 2.56-.864 3.872-2.56 3.872-1.664 0-2.592-1.312-2.592-3.648 0-2.432.896-3.776 2.528-3.776zM106.336 63.48l4.576-15.808c1.152-4 1.696-4.832 3.232-4.928l.192-.032v-1.056h-6.144v1.056h.128c1.312.032 2.048.736 2.048 1.952 0 .704-.032.832-.544 2.56l-2.944 10.432-5.984-16H99.52l-5.216 16L90.752 46.2c-.32-1.056-.512-1.92-.512-2.304 0-.704.608-1.088 1.888-1.152l.192-.032v-1.056h-8.576v1.056l.256.032c1.568.032 1.984.608 2.976 4.032l5.152 16.704h1.344L98.88 47l6.176 16.48h1.28zm14.642-13.888c-4.16 0-7.2 2.944-7.2 7.008 0 4 3.072 6.912 7.328 6.912 4 0 7.072-3.008 7.072-6.944 0-4.032-3.04-6.976-7.2-6.976zm0 1.088c2.528 0 3.648 1.792 3.648 5.792 0 4.224-1.088 5.984-3.648 5.984s-3.648-1.792-3.648-5.888c0-4.128 1.088-5.888 3.648-5.888zm9.197.928h.16c1.632.032 1.856.384 1.92 3.104v4.096c0 2.752-.224 3.104-1.92 3.136h-.128V63h7.04v-1.056h-.128c-1.504-.096-1.664-.384-1.664-3.136V53.56c.096-.096.096-.096.8-.896.8-.928 1.824-1.44 2.816-1.44.736 0 1.44.384 1.792.96.256.48.352 1.088.352 2.592v4.032c0 2.816-.128 3.04-1.696 3.136h-.16V63h6.816v-1.056h-.096c-1.472-.096-1.632-.384-1.632-3.136v-5.056c1.376-1.76 2.432-2.496 3.68-2.496 1.504 0 2.112.864 2.112 3.008v4.544c0 2.816-.128 3.04-1.696 3.136h-.128V63h7.136v-1.056h-.192c-1.664-.064-1.824-.288-1.888-3.136v-4.064c0-2.144-.064-2.528-.512-3.36-.608-1.056-2.08-1.792-3.648-1.792-1.856 0-3.296.8-5.024 2.784-.576-1.792-1.984-2.784-3.968-2.784-1.824 0-3.456.864-4.832 2.528v-.256c0-.832-.128-1.408-.416-2.144h-.128c-.96.288-2.72.608-4.768.832v1.056zm38.495 8.352c-.832 1.504-2.176 2.336-3.84 2.336-2.592 0-4-2.144-4-6.016 0-.384 0-.64.064-1.152h8.928c0-3.2-2.464-5.536-5.888-5.536-3.84 0-6.656 2.976-6.656 7.008 0 3.968 2.88 6.912 6.816 6.912 2.496 0 4.704-1.312 5.568-3.264l-.992-.288zm-7.744-5.792c.16-1.28.32-1.824.736-2.432.448-.64 1.312-1.088 2.176-1.088 1.536 0 2.528 1.152 2.528 3.008 0 .224 0 .288-.032.512h-5.408zm10.876-2.56h.128c1.664.064 1.888.384 1.952 3.104v4.096c-.032 2.752-.256 3.104-1.952 3.136h-.16V63h7.264v-1.056h-.16c-1.632-.064-1.792-.352-1.792-3.136v-5.184c1.184-1.664 2.368-2.464 3.712-2.464 1.376 0 2.24.928 2.24 2.4v5.248c0 2.784-.16 3.04-1.76 3.136h-.256V63h7.328v-1.056h-.192c-1.664-.064-1.824-.288-1.888-3.136v-4.192c0-1.856-.096-2.432-.544-3.232-.64-1.088-2.016-1.792-3.552-1.792-1.984 0-4 1.024-5.056 2.56v-.288c0-.8-.128-1.408-.416-2.144h-.128c-.96.32-2.752.64-4.768.864v1.024zm46.002 11.84V46.2c-.096-2.272.64-3.136 2.88-3.456l.256-.032v-1.056h-7.744v1.056h.352c2.336.224 3.104 1.056 3.072 3.328v11.072l-12.352-15.456h-6.592v1.056h.192c2.432 0 2.816.544 2.944 4.16V58.04c0 1.824-.032 2.176-.256 2.56-.352.704-1.568 1.248-2.848 1.312l-.16.032V63h7.968v-1.056h-.288c-1.248 0-2.432-.544-2.912-1.344-.256-.48-.288-.576-.32-2.56V44.92l14.688 18.528h1.12zm11.549-13.856c-4.16 0-7.2 2.944-7.2 7.008 0 4 3.072 6.912 7.328 6.912 4 0 7.072-3.008 7.072-6.944 0-4.032-3.04-6.976-7.2-6.976zm0 1.088c2.528 0 3.648 1.792 3.648 5.792 0 4.224-1.088 5.984-3.648 5.984s-3.648-1.792-3.648-5.888c0-4.128 1.088-5.888 3.648-5.888zm24.632 12.736l3.872-9.6c.864-2.272 1.088-2.56 2.336-2.656h.096v-1.056h-4.672v1.056h.256c.896.032 1.408.32 1.408.8 0 .192 0 .224-.352 1.216l-2.56 6.528-3.872-9.6h-1.312l-3.904 9.6-2.4-6.208-.288-.736c-.16-.352-.256-.672-.256-.896 0-.48.48-.704 1.504-.704h.192v-1.056h-6.816v1.056h.192c1.12.064 1.248.192 2.112 2.336l3.968 9.92h1.408l3.84-9.536 3.872 9.536h1.376zm6.681-1.596c0-1.07.85-1.92 1.92-1.92 1.07 0 1.92.85 1.92 1.92a1.92 1.92 0 01-3.84 0zm-.36 0c0 1.25 1.03 2.25 2.28 2.25 1.25 0 2.28-1 2.28-2.25s-1.03-2.27-2.28-2.27c-1.25 0-2.28 1.02-2.28 2.27zm3.55 1.25l-.68-1.08c.29-.11.51-.33.51-.68 0-.61-.5-.8-.97-.8h-1.1v2.56h.61v-.99h.36l.55.99h.72zm-1.63-1.43v-.63h.47c.15 0 .37.09.37.3 0 .2-.18.33-.37.33h-.47z" fill="#fff"/></svg>